# xmcd
# Track frame offsets:
# 150
# 7798
# 22495
# 36742
# 51813
# 65311
# 83158
# 96055
# 109102
# 123425
# 137371
# 152068
# 165190
#
# Disc length: 2404 seconds
# Revision: 0
# Processed by: cddbd v1.5.2PL0 Copyright (c) Steve Scherf et al.
# Submitted via: VisiTrax 2.11.3.279 - For more info visit www.synapsa.com
#
DISCID=9e09620d
DTITLE=Chet Atkins - Almost Alone
DYEAR=1996
DGENRE=Country/Instrumental
TTITLE0=Big Foot
TTITLE1=Waiting For Susie B.
TTITLE2=A Little Mark Musik
TTITLE3=Jam Man
TTITLE4=I Still Write Your Name In The Snow
TTITLE5=Pu, Uana Hulu (Remembering Gabby)
TTITLE6=Happy Again
TTITLE7=Sweet Alla Lee
TTITLE8=Maybelle
TTITLE9=Mr. Bo Jangles
TTITLE10=Cheek To Cheek
TTITLE11=You Do Something To Me
TTITLE12=Ave Maria
EXTD=COLUMBIA
EXTT0=
EXTT1=
EXTT2=
EXTT3=
EXTT4=
EXTT5=
EXTT6=
EXTT7=
EXTT8=
EXTT9=
EXTT10=
EXTT11=
EXTT12=
PLAYORDER=
